<!-- Uploaded to: SVG Repo, www.svgrepo.com, Generator: SVG Repo Mixer Tools -->
<svg aria-hidden="true" focusable="false" version="1.1" id="Layer_1" xmlns="http://www.w3.org/2000/svg" xmlns:xlink="http://www.w3.org/1999/xlink" 
	 viewBox="0 0 512 512" xml:space="preserve">
<path style="fill:#74C8EE;" d="M501.945,184.72C471.076,78.018,372.648,0,256,0C114.615,0,0,114.615,0,256
	c0,121.489,84.626,223.211,198.145,249.435L501.945,184.72z"/>
<path style="fill:#3AAADC;" d="M144.05,451.339l54.096,54.096C216.737,509.729,236.103,512,256,512c141.384,0,256-114.615,256-256
	c0-24.736-3.519-48.648-10.066-71.275l-83.99-83.99L144.05,451.339z"/>
<polygon style="fill:#FFF9CF;" points="233.739,200.632 233.739,409.875 375.491,368.411 386.222,250.388 "/>
<polygon style="fill:#FFFFFF;" points="125.778,250.388 136.509,368.412 256,409.875 256,200.632 "/>
<polygon style="fill:#FFF296;" points="375.496,368.406 367.95,451.339 256,451.339 222.609,409.875 256,368.406 "/>
<polygon style="fill:#FFF9CF;" points="256,368.406 256,451.339 144.05,451.339 136.515,368.406 "/>
<path style="fill:#FEEB5C;" d="M353.436,74.017h-48.718l16.395,176.373h65.113c34.182-13.167,58.435-46.325,58.435-85.148
	C444.661,114.855,403.823,74.017,353.436,74.017z"/>
<path style="fill:#FFF296;" d="M350.33,165.242c0,38.823-12.121,71.981-29.217,85.148H256l-33.391-88.186L256,74.017h48.718
	C329.917,74.017,350.33,114.855,350.33,165.242z"/>
<path style="fill:#FFFFFF;" d="M158.564,74.017c-50.387,0-91.225,40.838-91.225,91.225c0,38.823,24.253,71.981,58.435,85.148h65.113
	l16.395-176.373H158.564z"/>
<g>
	<path style="fill:#FFF9CF;" d="M256,74.017V250.39h-65.113c-17.096-13.167-29.217-46.325-29.217-85.148
		c0-50.387,20.413-91.225,45.613-91.225C207.282,74.017,256,74.017,256,74.017z"/>
	<rect x="159.165" y="272.651" style="fill:#FFF9CF;" width="22.261" height="22.261"/>
	<rect x="192.557" y="306.042" style="fill:#FFF9CF;" width="22.261" height="22.261"/>
</g>
</svg>