<!-- Uploaded to: SVG Repo, www.svgrepo.com, Generator: SVG Repo Mixer Tools -->
<svg aria-hidden="true" focusable="false" version="1.1" id="Layer_1" xmlns="http://www.w3.org/2000/svg" xmlns:xlink="http://www.w3.org/1999/xlink" 
	 viewBox="0 0 512.001 512.001" xml:space="preserve">
<path style="fill:#FFF296;" d="M511.958,259.382c0.014-1.128,0.042-2.251,0.043-3.381C512,114.616,397.385,0.001,256,0.001
	c-141.384,0-256,114.616-256,256c0,119.947,82.5,220.611,193.845,248.386L511.958,259.382z"/>
<path style="fill:#FEEB5C;" d="M128,239.306c-27.662,0-50.087,22.423-50.087,50.087c0,18.047-5.565,93.495-5.565,93.495L128,438.54
	l174.947-143.466L128,239.306z"/>
<path style="fill:#FAC656;" d="M511.958,259.382l-204.8-204.8l-5.077,10.879c-0.896-1.024-1.818-2.032-2.794-3.009
	c-23.907-23.907-62.668-23.907-86.575,0c-23.906,23.906-23.907,62.668,0,86.575c11.632,11.632,26.781,17.587,42.024,17.9L128,438.54
	l65.847,65.847c19.9,4.964,40.716,7.614,62.153,7.614C396.255,512.001,510.145,399.206,511.958,259.382z"/>
<path style="fill:#EA5A7D;" d="M128,233.74c-30.687,0-55.652,24.966-55.652,55.652v93.496h22.261v-93.496
	c0-18.412,14.979-33.391,33.391-33.391h128V233.74H128z"/>
<g>
	<path style="fill:#E0315B;" d="M384,233.74H256v22.261h128c18.412,0,33.391,14.979,33.391,33.391v93.496h22.261v-93.496
		C439.652,258.705,414.687,233.74,384,233.74z"/>
	<path style="fill:#E0315B;" d="M256,33.392l-11.13,11.13L256,55.653c27.662,0,50.087,22.424,50.087,50.087s0,50.087,0,50.087
		l22.261-33.391V105.74C328.348,65.784,295.957,33.392,256,33.392z"/>
</g>
<g>
	<path style="fill:#EA5A7D;" d="M183.652,105.74v16.696l22.261,33.391c0,0,0-22.424,0-50.087S228.338,55.653,256,55.653V33.392
		C216.044,33.392,183.652,65.784,183.652,105.74z"/>
	<path style="fill:#EA5A7D;" d="M384,233.74c-30.736,0-55.652-24.917-55.652-55.652v-55.652H256l-22.261,158.052L256,438.54h128
		V233.74z"/>
</g>
<path style="fill:#F5849F;" d="M128,438.54h128V122.435h-72.348v55.652c0,30.736-24.917,55.652-55.652,55.652V438.54L128,438.54z"/>
<path style="fill:#E0315B;" d="M256,144.696l-22.261,38.957L256,222.609c27.662,0,50.087-22.424,50.087-50.087s0-27.826,0-27.826
	H256z"/>
<g>
	<path style="fill:#EA5A7D;" d="M205.913,144.696c0,0,0,0.164,0,27.826s22.424,50.087,50.087,50.087v-77.913H205.913z"/>
	<rect x="183.652" y="394.018" style="fill:#EA5A7D;" width="22.261" height="22.261"/>
	<rect x="150.261" y="360.627" style="fill:#EA5A7D;" width="22.261" height="22.261"/>
</g>
</svg>