<!-- Uploaded to: SVG Repo, www.svgrepo.com, Generator: SVG Repo Mixer Tools -->
<svg aria-hidden="true" focusable="false" version="1.1" id="Layer_1" xmlns="http://www.w3.org/2000/svg" xmlns:xlink="http://www.w3.org/1999/xlink" 
	 viewBox="0 0 512 512" xml:space="preserve">
<path style="fill:#D3754F;" d="M256,0C114.616,0,0,114.616,0,256c0,123.053,86.82,225.828,202.545,250.41l308.133-276.585
	C497.568,100.736,388.548,0,256,0z"/>
<path style="fill:#A65A3A;" d="M144.711,448.556l57.838,57.838C219.79,510.057,237.667,512,256,512c141.384,0,256-114.616,256-256
	c0-8.285-0.408-16.474-1.179-24.558L322.788,43.409L144.711,448.556z"/>
<polygon style="fill:#FBC09B;" points="306.092,76.8 256.006,62.33 233.745,251.548 322.788,229.287 "/>
<polygon style="fill:#FFE2C4;" points="256.006,62.33 205.919,76.8 189.223,229.287 256.006,251.548 "/>
<polygon style="fill:#F79E73;" points="256.031,218.157 243.551,240.417 256.031,262.678 433.112,240.417 433.112,218.157 "/>
<g>
	<polygon style="fill:#FBC09B;" points="256.031,218.157 78.919,218.157 78.919,240.417 256.031,262.678 	"/>
	<path style="fill:#FBC09B;" d="M256.031,240.417l-22.292,197.009l133.581-11.13c40.452-37.368,65.792-90.852,65.792-150.26v-35.619
		H256.031z"/>
</g>
<path style="fill:#FFE2C4;" d="M78.919,240.417v35.619c0,59.408,25.341,112.892,65.792,150.26l111.32,11.13V240.417H78.919z"/>
<polygon style="fill:#F79E73;" points="256.016,426.296 243.535,437.426 256.016,448.556 367.32,448.556 367.32,426.296 "/>
<rect x="144.707" y="426.296" style="fill:#FBC09B;" width="111.304" height="22.261"/>
<polygon style="fill:#F79E73;" points="256.006,43.409 247.091,60.104 256.006,76.8 322.788,76.8 322.788,43.409 "/>
<g>
	<rect x="189.217" y="43.409" style="fill:#FBC09B;" width="66.783" height="33.391"/>
	<rect x="101.176" y="262.678" style="fill:#FBC09B;" width="22.261" height="22.261"/>
	<rect x="134.567" y="296.07" style="fill:#FBC09B;" width="22.261" height="22.261"/>
</g>
</svg>