<!-- Uploaded to: SVG Repo, www.svgrepo.com, Generator: SVG Repo Mixer Tools -->
<svg aria-hidden="true" focusable="false" version="1.1" id="Layer_1" xmlns="http://www.w3.org/2000/svg" xmlns:xlink="http://www.w3.org/1999/xlink" 
	 viewBox="0 0 512 512" xml:space="preserve">
<path style="fill:#F37C4A;" d="M256,0C114.616,0,0,114.616,0,256c0,119.052,81.267,219.124,191.352,247.768l309.139-323.895
	C468.078,75.664,370.875,0,256,0z"/>
<path style="fill:#E64A55;" d="M131.869,444.275l59.484,59.484C212.005,509.133,233.667,512,256,512c141.385,0,256-114.616,256-256
	c0-26.189-3.941-51.454-11.248-75.247l-88.647-88.648H171.409v196.174l-40.07,38.029L131.869,444.275z"/>
<rect x="160.278" y="243.757" style="fill:#FFFFFF;" width="22.261" height="205.913"/>
<path style="fill:#AEE6FF;" d="M380.661,79.026H256l-22.261,164.73l191.443-22.261v-97.948
	C425.183,99.061,405.148,79.026,380.661,79.026z M380.661,145.809h-74.574c-12.275,0-22.261-9.986-22.261-22.261
	s9.986-22.261,22.261-22.261h74.574c12.275,0,22.261,9.986,22.261,22.261S392.936,145.809,380.661,145.809z"/>
<g>
	<path style="fill:#D1F1FF;" d="M256,79.026v164.73L86.817,221.496V168.07c0-48.974,40.07-89.043,89.043-89.043H256z"/>
	<path style="fill:#D1F1FF;" d="M227.061,343.93v61.217c0,30.687-24.966,55.652-55.652,55.652l-11.13-11.13l11.13-11.13
		c18.41,0,33.391-14.982,33.391-33.391V343.93c0-18.41-14.982-33.391-33.391-33.391l-11.13-11.13l11.13-11.13
		C202.095,288.278,227.061,313.244,227.061,343.93z"/>
</g>
<path style="fill:#FFFFFF;" d="M171.409,438.539V460.8c-30.687,0-55.652-24.966-55.652-55.652V343.93
	c0-30.687,24.966-55.652,55.652-55.652v22.261c-18.41,0-33.391,14.982-33.391,33.391v61.217
	C138.017,423.558,152.999,438.539,171.409,438.539z"/>
<path style="fill:#F5849F;" d="M256,221.496h169.183c0,24.487-20.035,44.522-44.522,44.522H256l-22.261-22.261L256,221.496z"/>
<path style="fill:#FFADC1;" d="M86.817,221.496H256v44.522H131.339C106.852,266.017,86.817,245.983,86.817,221.496z"/>
<g>
	<rect x="109.078" y="176.974" style="fill:#AEE6FF;" width="73.461" height="22.261"/>
	<rect x="131.339" y="132.452" style="fill:#AEE6FF;" width="51.2" height="22.261"/>
</g>
</svg>