<!-- Uploaded to: SVG Repo, www.svgrepo.com, Generator: SVG Repo Mixer Tools -->
<svg aria-hidden="true" focusable="false" version="1.1" id="Layer_1" xmlns="http://www.w3.org/2000/svg" xmlns:xlink="http://www.w3.org/1999/xlink" 
	 viewBox="0 0 512 512" xml:space="preserve">
<circle style="fill:#FFBBD5;" cx="256" cy="256" r="256"/>
<path style="fill:#FF9CC2;" d="M509.888,288.999l-172.98-172.98L205.602,276.711l-101.305,81.344l153.917,153.917
	C387.417,510.876,493.79,414.08,509.888,288.999z"/>
<rect x="175.097" y="116.019" style="fill:#C75163;" width="161.823" height="80.908"/>
<rect x="256.293" y="116.019" style="fill:#B73952;" width="80.62" height="80.908"/>
<rect x="159.461" y="167.046" style="fill:#FF6472;" width="193.077" height="96.539"/>
<g>
	<rect x="256.293" y="167.046" style="fill:#C75163;" width="96.251" height="96.539"/>
	<rect x="134.637" y="228.417" style="fill:#C75163;" width="242.726" height="121.363"/>
</g>
<rect x="256.293" y="228.417" style="fill:#B73952;" width="121.07" height="121.363"/>
<rect x="104.296" y="327.714" style="fill:#935635;" width="303.407" height="30.341"/>
<rect x="256.293" y="327.714" style="fill:#804000;" width="151.411" height="30.341"/>
<g>
	<path style="fill:#E6F3FF;" d="M229.336,269.379c0-7.363,5.968-13.331,13.331-13.331s13.331,5.968,13.331,13.331
		c0-7.363,5.968-13.331,13.331-13.331s13.331,5.968,13.331,13.331c0,12.747-26.664,27.994-26.664,27.994
		S229.336,282.845,229.336,269.379z"/>
	<path style="fill:#E6F3FF;" d="M144.291,269.379c0-7.363,5.968-13.331,13.331-13.331s13.331,5.968,13.331,13.331
		c0-7.363,5.968-13.331,13.331-13.331s13.331,5.968,13.331,13.331c0,12.747-26.664,27.994-26.664,27.994
		S144.291,282.845,144.291,269.379z"/>
</g>
<path style="fill:#CFDBE6;" d="M314.384,269.379c0-7.363,5.968-13.331,13.331-13.331s13.331,5.968,13.331,13.331
	c0-7.363,5.968-13.331,13.331-13.331s13.331,5.968,13.331,13.331c0,12.747-26.664,27.994-26.664,27.994
	S314.384,282.845,314.384,269.379z"/>
<g>
	<path style="fill:#FFD15D;" d="M236.689,191.362c0-5.332,4.324-9.656,9.656-9.656S256,186.03,256,191.362
		c0-5.332,4.324-9.656,9.656-9.656c5.332,0,9.656,4.324,9.656,9.656c0,9.233-19.311,20.275-19.311,20.275
		S236.689,201.116,236.689,191.362z"/>
	<path style="fill:#FFD15D;" d="M175.092,191.362c0-5.332,4.324-9.656,9.656-9.656s9.656,4.324,9.656,9.656
		c0-5.332,4.324-9.656,9.656-9.656s9.656,4.324,9.656,9.656c0,9.233-19.311,20.275-19.311,20.275S175.092,201.116,175.092,191.362z"
		/>
</g>
<path style="fill:#F9B54C;" d="M298.286,191.362c0-5.332,4.324-9.656,9.656-9.656c5.332,0,9.656,4.324,9.656,9.656
	c0-5.332,4.324-9.656,9.656-9.656c5.332,0,9.656,4.324,9.656,9.656c0,9.233-19.311,20.275-19.311,20.275
	S298.286,201.116,298.286,191.362z"/>
<path style="fill:#FFD15D;" d="M240.2,139.486c0-4.363,3.537-7.899,7.901-7.899s7.901,3.537,7.901,7.899
	c0-4.363,3.537-7.899,7.901-7.899s7.901,3.537,7.901,7.899c0,7.554-15.8,16.589-15.8,16.589S240.2,147.466,240.2,139.486z"/>
<path style="fill:#CFDBE6;" d="M282.664,269.379c0-7.363-5.968-13.331-13.331-13.331c-6.418,0-11.774,4.537-13.043,10.578v30.58
	C259.151,295.524,282.664,281.35,282.664,269.379z"/>
<g>
	<path style="fill:#F9B54C;" d="M275.311,191.362c0-5.332-4.324-9.656-9.656-9.656c-4.537,0-8.333,3.134-9.368,7.352v22.411
		C258.655,210.073,275.311,199.939,275.311,191.362z"/>
	<path style="fill:#F9B54C;" d="M271.8,139.486c0-4.363-3.537-7.901-7.901-7.901c-3.667,0-6.721,2.51-7.613,5.897v18.422
		C258.345,154.69,271.8,146.465,271.8,139.486z"/>
</g>
<path style="fill:#FFD15D;" d="M189.802,139.486c0-4.363,3.537-7.899,7.901-7.899c4.363,0,7.901,3.537,7.901,7.899
	c0-4.363,3.537-7.899,7.901-7.899s7.901,3.537,7.901,7.899c0,7.554-15.8,16.589-15.8,16.589S189.802,147.466,189.802,139.486z"/>
<path style="fill:#F9B54C;" d="M290.597,139.486c0-4.363,3.537-7.899,7.901-7.899c4.363,0,7.901,3.537,7.901,7.899
	c0-4.363,3.537-7.899,7.901-7.899s7.901,3.537,7.901,7.899c0,7.554-15.8,16.589-15.8,16.589S290.597,147.466,290.597,139.486z"/>
</svg>