<!-- Uploaded to: SVG Repo, www.svgrepo.com, Generator: SVG Repo Mixer Tools -->
<svg aria-hidden="true" focusable="false" height="800px" width="800px" version="1.1" id="Layer_1" xmlns="http://www.w3.org/2000/svg" xmlns:xlink="http://www.w3.org/1999/xlink" 
	 viewBox="0 0 512 512" xml:space="preserve">
<circle style="fill:#263A7A;" cx="256" cy="256" r="256"/>
<path style="fill:#121149;" d="M273.689,511.381c124.08-8.47,223.87-105.341,236.866-228.126L378.22,150.919l-11.395,16.774
	l-53.936-53.936l-111.766,3.612v32.323l23.159,31.778c-43.734,8.089-95.537,17.641-96.282,17.641l150.906,150.906l-126.547,40.034
	L273.689,511.381z"/>
<path style="fill:#FFC61B;" d="M173.396,398.222h165.207c17.217,0,31.173-13.957,31.173-31.173V170.667H142.22v196.382
	C142.222,384.265,156.179,398.222,173.396,398.222z"/>
<g>
	<path style="fill:#EAA22F;" d="M255.426,170.667v227.556h83.178c17.217,0,31.173-13.957,31.173-31.173V170.667H255.426z"/>
	<path style="fill:#EAA22F;" d="M359.505,142.222h-41.444v-16.017c0-9.704-7.896-17.599-17.599-17.599h-88.924
		c-9.704,0-17.598,7.895-17.598,17.599v16.017h-41.446c-13.527,0-24.493,10.966-24.493,24.493v32.396h256v-32.396
		C384,153.188,373.034,142.222,359.505,142.222z M204.283,126.205c0-4.001,3.255-7.256,7.254-7.256h88.924
		c4.001,0,7.256,3.255,7.256,7.256v16.017H204.283V126.205z"/>
</g>
<path style="fill:#E09112;" d="M384,166.715c0-13.527-10.966-24.493-24.493-24.493h-41.446v-16.017
	c0-9.704-7.896-17.599-17.599-17.599h-45.035v10.343h45.035c4.001,0,7.256,3.255,7.256,7.256v16.017h-52.291v56.889H384V166.715z"/>
</svg>