<!-- Uploaded to: SVG Repo, www.svgrepo.com, Generator: SVG Repo Mixer Tools -->
<svg aria-hidden="true" focusable="false" version="1.1" id="Layer_1" xmlns="http://www.w3.org/2000/svg" xmlns:xlink="http://www.w3.org/1999/xlink" 
	 viewBox="0 0 512 512" xml:space="preserve">
<path style="fill:#E0315B;" d="M504.026,192.375C475.738,81.771,375.42,0,256,0C114.616,0,0,114.616,0,256
	c0,119.42,81.771,219.737,192.374,248.026L504.026,192.375z"/>
<path style="fill:#A82544;" d="M512,256c0-21.965-2.77-43.282-7.974-63.625l-69.939-69.94L77.913,389.565l114.461,114.461
	C212.717,509.23,234.035,512,256,512C397.384,512,512,397.384,512,256z"/>
<polygon style="fill:#57676E;" points="434.087,389.565 434.087,250.435 345.043,233.739 367.304,389.565 "/>
<g>
	<rect x="389.565" y="345.043" style="fill:#313A3E;" width="22.261" height="22.261"/>
	<rect x="389.565" y="300.522" style="fill:#313A3E;" width="22.261" height="22.261"/>
</g>
<g>
	<polygon style="fill:#748993;" points="345.043,250.435 434.087,250.435 434.087,200.348 345.043,178.087 	"/>
	<polygon style="fill:#748993;" points="367.304,122.435 345.043,178.087 434.087,155.826 434.087,122.435 	"/>
</g>
<rect x="345.043" y="155.826" style="fill:#313A3E;" width="89.043" height="44.522"/>
<polygon style="fill:#A2B1B7;" points="367.304,122.435 222.609,122.435 189.217,256 222.609,389.565 367.304,389.565 "/>
<rect x="77.913" y="122.435" style="fill:#C4D3D9;" width="144.696" height="267.13"/>
<g>
	<polygon style="fill:#414D53;" points="222.609,155.826 100.174,155.826 100.174,200.348 233.739,222.609 	"/>
	<polygon style="fill:#414D53;" points="100.174,311.652 100.174,356.174 222.609,356.174 233.739,289.391 	"/>
</g>
<g>
	<polygon style="fill:#313A3E;" points="222.609,356.174 345.043,356.174 345.043,311.652 222.609,289.391 	"/>
	<polygon style="fill:#313A3E;" points="222.609,155.826 222.609,222.609 345.043,200.348 345.043,155.826 	"/>
</g>
<polygon style="fill:#ED6350;" points="222.609,311.652 345.043,311.652 345.043,200.348 222.609,200.348 200.348,256 "/>
<rect x="100.174" y="200.348" style="fill:#F37C4A;" width="122.435" height="111.304"/>
</svg>