<?xml version="1.0" encoding="iso-8859-1"?>
<!-- Uploaded to: SVG Repo, www.svgrepo.com, Generator: SVG Repo Mixer Tools -->
<svg aria-hidden="true" focusable="false" version="1.1" id="Layer_1" xmlns="http://www.w3.org/2000/svg" xmlns:xlink="http://www.w3.org/1999/xlink" 
	 viewBox="0 0 512.001 512.001" xml:space="preserve">
<path style="fill:#E64A55;" d="M437.027,74.982c-99.976-99.976-262.07-99.976-362.045,0s-99.976,262.07,0,362.045
	c32.533,32.533,71.646,54.469,113.052,65.829l314.822-314.822C491.495,146.628,469.56,107.516,437.027,74.982z"/>
<path style="fill:#C42B50;" d="M437.027,437.028c67.444-67.444,89.379-163.153,65.829-248.993l-89.44-89.44L98.594,413.416
	l89.44,89.44C273.874,526.407,369.583,504.471,437.027,437.028z"/>
<path style="fill:#D3754F;" d="M413.415,98.595l-102.317,86.576l35.418,19.677l66.9-66.9
	C424.281,127.08,424.281,109.462,413.415,98.595z"/>
<path style="fill:#F79E73;" d="M413.415,98.595c-10.867-10.867-28.486-10.867-39.352,0l-66.9,66.9l11.806,27.547L413.415,98.595z"/>
<path style="fill:#D3754F;" d="M98.594,413.416l86.576-102.317l19.677,35.418l-66.9,66.9
	C127.079,424.284,109.461,424.284,98.594,413.416z"/>
<g>
	<path style="fill:#F79E73;" d="M98.594,413.416c-10.867-10.867-10.867-28.486,0-39.352l66.9-66.9l27.547,11.806L98.594,413.416z"/>
	<polygon style="fill:#F79E73;" points="405.544,208.783 354.386,157.624 240.263,240.264 157.623,354.387 208.781,405.545 	"/>
</g>
<rect x="91.292" y="194.253" transform="matrix(-0.7071 0.7071 -0.7071 -0.7071 556.294 230.4297)" style="fill:#FBC09B;" width="278.263" height="72.348"/>
<rect x="142.562" y="292.1" transform="matrix(-0.7071 -0.7071 0.7071 -0.7071 47.9532 626.3249)" style="fill:#F79E73;" width="22.261" height="22.261"/>
</svg>