<!-- Uploaded to: SVG Repo, www.svgrepo.com, Generator: SVG Repo Mixer Tools -->
<svg aria-hidden="true" focusable="false" version="1.1" id="Layer_1" xmlns="http://www.w3.org/2000/svg" xmlns:xlink="http://www.w3.org/1999/xlink" 
	 viewBox="0 0 512 512" xml:space="preserve">
<path style="fill:#E0315B;" d="M256,0C114.616,0,0,114.616,0,256c0,120.212,82.858,221.073,194.579,248.584l317.382-253.092
	C509.556,112.187,395.879,0,256,0z"/>
<path style="fill:#A82544;" d="M512,256c0-1.507-0.031-3.007-0.057-4.509L400.696,140.243l-15.465,15.465L267.805,38.282
	l-14.307,115.516L55.74,223.136l-1.395,82.03l72.688,72.688l-42.999,16.162l110.549,110.549C214.261,509.412,234.827,512,256,512
	C397.385,512,512,397.385,512,256z"/>
<path style="fill:#F79E73;" d="M159.165,325.565h-55.652c-38.359,0-69.565-31.208-69.565-69.565s31.206-69.565,69.565-69.565h55.652
	v27.826h-55.652c-23.016,0-41.739,18.724-41.739,41.739s18.724,41.739,41.739,41.739h55.652V325.565z"/>
<path style="fill:#AEE6FF;" d="M256,33.391c-9.22,0-16.696,7.475-16.696,16.696v215.87h33.391V50.087
	C272.696,40.867,265.22,33.391,256,33.391z"/>
<path style="fill:#F37C4A;" d="M256,140.243l-32.755,242.643l90.474-11.13c51.568-25.919,86.977-79.409,86.977-141.191v-90.322H256z
	"/>
<g>
	<rect x="333.913" y="184.765" style="fill:#E64A55;" width="22.261" height="22.261"/>
	<rect x="300.522" y="218.157" style="fill:#E64A55;" width="22.261" height="22.261"/>
</g>
<path style="fill:#F79E73;" d="M256,140.243v242.643l-57.719-11.13c-51.568-25.919-86.977-79.409-86.977-141.191v-90.322H256z"/>
<polygon style="fill:#F37C4A;" points="244.87,382.887 256,416.278 387.896,416.278 399.026,394.017 "/>
<polygon style="fill:#F79E73;" points="256,382.887 112.974,394.017 124.104,416.278 256,416.278 "/>
<polygon style="fill:#E64A55;" points="256,371.757 243.112,382.887 256,394.017 427.965,394.017 427.965,371.757 "/>
<rect x="84.035" y="371.757" style="fill:#F37C4A;" width="171.965" height="22.261"/>
</svg>