<!-- Uploaded to: SVG Repo, www.svgrepo.com, Generator: SVG Repo Mixer Tools -->
<svg aria-hidden="true" focusable="false" height="800px" width="800px" version="1.1" id="Layer_1" xmlns="http://www.w3.org/2000/svg" xmlns:xlink="http://www.w3.org/1999/xlink" 
	 viewBox="0 0 512.001 512.001" xml:space="preserve">
<path style="fill:#008CCB;" d="M502.857,188.041c-11.36-41.408-33.296-80.522-65.83-113.056c-99.976-99.976-262.07-99.976-362.045,0
	s-99.976,262.07,0,362.045c33.648,33.648,74.336,55.954,117.32,66.952L502.857,188.041z"/>
<path style="fill:#006998;" d="M437.028,437.03c67.443-67.443,89.378-163.149,65.83-248.989l-89.446-89.446L80.487,392.167
	l111.816,111.816C277.034,525.665,370.699,503.359,437.028,437.03z"/>
<path style="fill:#A65A3A;" d="M413.412,98.596l-106.252,82.64l39.352,23.611l66.9-66.9
	C424.279,127.081,424.279,109.463,413.412,98.596z"/>
<path style="fill:#D3754F;" d="M413.412,98.596c-10.867-10.867-28.486-10.867-39.352,0l-66.9,66.9l11.806,27.547L413.412,98.596z"/>
<polygon style="fill:#AEE6FF;" points="295.354,200.913 322.9,228.46 346.511,204.849 326.836,185.172 "/>
<path style="fill:#D1F1FF;" d="M307.159,165.495c-9.305,9.305-15.741,15.741-15.741,15.741l11.806,27.547l23.611-23.611
	L307.159,165.495z"/>
<path style="fill:#AEE6FF;" d="M96.229,376.426l-15.741,15.741c6.874,6.874,14.6,12.367,22.83,16.523l109.657-78.175L96.229,376.426
	z"/>
<path style="fill:#74C8EE;" d="M338.641,228.46l-141.408,86.315l-93.916,93.916c33.399,16.87,75.199,11.378,103.1-16.523
	c34.774-34.774,147.966-147.966,147.966-147.966L338.641,228.46z"/>
<path style="fill:#D1F1FF;" d="M311.094,200.913l-103.31,87.569l-87.569,103.31c23.716,8.763,51.441,3.653,70.459-15.365
	L338.64,228.461L311.094,200.913z"/>
<path style="fill:#FFFFFF;" d="M291.418,181.237L96.228,376.426c7.02,7.02,15.233,12.13,23.988,15.365l190.878-190.878
	L291.418,181.237z"/>
</svg>