<!-- Uploaded to: SVG Repo, www.svgrepo.com, Generator: SVG Repo Mixer Tools -->
<svg aria-hidden="true" focusable="false" version="1.1" id="Layer_1" xmlns="http://www.w3.org/2000/svg" xmlns:xlink="http://www.w3.org/1999/xlink" 
	 viewBox="0 0 512 512" xml:space="preserve">
<path style="fill:#7A3E25;" d="M502.855,188.033c-11.36-41.407-33.296-80.519-65.829-113.051
	c-99.976-99.976-262.069-99.976-362.044,0s-99.976,262.069,0,362.044c38.838,38.838,87.051,62.58,137.355,71.243L502.855,188.033z"
	/>
<path style="fill:#592C1A;" d="M502.855,188.033l-89.44-89.44l-218.801,218.8l-47.223-47.223l-78.706,78.706l94.447,110.187
	l49.205,49.205c79.185,13.637,163.552-10.105,224.689-71.243C504.469,369.582,526.405,273.874,502.855,188.033z"/>
<rect x="245.038" y="157.049" transform="matrix(-0.7071 -0.7071 0.7071 -0.7071 263.1237 615.0884)" style="fill:#AEE6FF;" width="27.826" height="192.001"/>
<path style="fill:#74C8EE;" d="M241.837,270.171l-43.288,11.806l-11.806,43.288l7.87,7.87L131.648,396.1l-7.87-7.87h-15.74v15.741
	l55.093,55.093c0,0,48.278-48.278,78.706-78.706S272.265,300.598,241.837,270.171z M163.132,427.581l-15.741-15.741l62.965-62.965
	l15.741,15.741L163.132,427.581z"/>
<path style="fill:#AEE6FF;" d="M115.909,380.358l62.965-62.965l7.87,7.87l55.093-55.093c-30.428-30.428-79.76-30.428-110.187,0
	s-78.706,78.706-78.706,78.706l55.093,55.093l15.741-15.741L115.909,380.358z M100.168,364.617l-15.741-15.741l62.965-62.965
	l15.741,15.741L100.168,364.617z"/>
<path style="fill:#A65A3A;" d="M413.415,98.593l-106.252,82.64l39.352,23.611l66.899-66.899
	C424.282,127.079,424.282,109.46,413.415,98.593z"/>
<path style="fill:#D3754F;" d="M413.415,98.593c-10.867-10.867-28.485-10.867-39.352,0l-66.899,66.899l11.806,27.547L413.415,98.593
	z"/>
<polygon style="fill:#D1F1FF;" points="311.098,200.91 330.774,220.586 346.516,204.845 326.839,185.168 311.098,185.168 "/>
<path style="fill:#FFFFFF;" d="M307.162,165.493c-9.305,9.305-15.741,15.741-15.741,15.741l19.677,19.677l15.741-15.741
	L307.162,165.493z"/>
</svg>