<?xml version="1.0" standalone="no"?>
<!DOCTYPE svg PUBLIC "-//W3C//DTD SVG 20010904//EN"
 "http://www.w3.org/TR/2001/REC-SVG-20010904/DTD/svg10.dtd">
<svg version="1.0" xmlns="http://www.w3.org/2000/svg"
 width="1827.000000pt" height="1827.000000pt" viewBox="0 0 1827.000000 1827.000000"
 preserveAspectRatio="xMidYMid meet">
<metadata>
Created by potrace 1.14, written by Peter Selinger 2001-2017
</metadata>
<g transform="translate(0.000000,1827.000000) scale(0.100000,-0.100000)"
fill="#000000" stroke="none">
<path d="M8517 18264 c-1 -1 -56 -5 -122 -8 -66 -4 -132 -8 -145 -11 -14 -2
-56 -6 -95 -9 -38 -4 -81 -8 -95 -10 -14 -2 -52 -8 -85 -12 -33 -4 -67 -8 -75
-9 -8 -2 -35 -6 -60 -9 -24 -4 -90 -15 -145 -27 -55 -11 -116 -22 -135 -25
-19 -3 -38 -8 -41 -10 -3 -2 -19 -6 -36 -8 -154 -28 -573 -162 -783 -252 -157
-67 -369 -175 -482 -245 -44 -27 -81 -49 -83 -49 -11 0 -315 -217 -335 -239
-3 -3 -36 -33 -75 -66 -121 -103 -302 -289 -398 -410 -27 -33 -54 -68 -62 -77
-117 -144 -293 -454 -385 -678 -23 -58 -48 -118 -55 -135 -14 -33 -50 -145
-70 -215 -7 -25 -27 -92 -43 -150 -39 -134 -98 -364 -118 -455 -8 -38 -17 -79
-19 -90 -3 -11 -7 -31 -10 -44 -2 -13 -6 -25 -7 -26 -2 -1 -18 -12 -36 -24
-18 -13 -35 -21 -38 -19 -4 5 -7 72 -19 453 -3 99 -7 236 -10 305 -2 69 -7
213 -11 320 -3 107 -7 240 -9 295 -2 55 -5 142 -6 192 l-3 92 -160 -4 c-87 -3
-160 -6 -162 -8 -2 -2 -7 -150 -19 -612 -3 -99 -7 -245 -10 -325 -2 -80 -7
-251 -11 -380 -3 -129 -8 -273 -9 -320 -2 -47 -4 -142 -5 -211 l-2 -127 -60
-58 c-73 -72 -172 -193 -197 -243 -43 -83 -52 -132 -52 -261 1 -124 7 -280 16
-375 3 -28 7 -79 10 -115 3 -36 7 -78 10 -95 2 -16 7 -57 10 -90 3 -33 15
-125 26 -205 12 -80 22 -154 23 -165 2 -11 6 -40 10 -65 4 -25 10 -58 12 -75
10 -64 64 -339 75 -378 6 -23 13 -53 16 -67 28 -160 129 -415 191 -488 71 -83
317 -188 577 -247 143 -32 141 -32 198 -40 44 -7 46 -9 122 -121 42 -63 82
-120 89 -127 6 -6 25 -30 41 -52 16 -22 41 -54 55 -71 14 -17 43 -52 65 -79
64 -79 262 -274 365 -362 114 -96 222 -177 347 -259 l92 -61 -55 -67 c-31 -37
-103 -127 -160 -199 -58 -73 -111 -140 -119 -149 -81 -98 -467 -626 -671 -918
-29 -41 -62 -88 -74 -105 -196 -275 -690 -1024 -690 -1046 0 -5 -4 -9 -10 -9
-5 0 -10 -4 -10 -9 0 -6 -18 -38 -40 -73 -29 -47 -65 -84 -139 -142 -210 -167
-436 -426 -565 -649 -31 -54 -56 -99 -56 -102 0 -2 -13 -32 -29 -67 -31 -69
-71 -188 -95 -283 -86 -343 22 -685 299 -948 133 -126 374 -253 534 -282 14
-2 48 -9 74 -14 51 -9 284 -7 327 3 14 3 39 8 55 12 88 17 232 76 318 131 27
17 39 20 41 11 3 -7 10 -31 16 -53 22 -72 90 -192 150 -263 32 -39 56 -72 53
-75 -12 -13 -17 -95 -17 -297 0 -214 0 -215 27 -275 55 -118 156 -185 302
-199 38 -4 71 -8 72 -10 3 -3 -12 -98 -38 -231 -6 -33 -12 -69 -14 -80 -1 -11
-8 -49 -15 -85 -7 -36 -14 -74 -16 -85 -1 -11 -5 -29 -7 -40 -3 -11 -8 -40
-12 -65 -4 -25 -9 -54 -11 -65 -38 -203 -56 -304 -59 -320 -2 -16 -24 -141
-70 -390 -3 -16 -8 -46 -11 -65 -3 -19 -9 -51 -14 -70 -4 -19 -12 -57 -16 -85
-4 -27 -8 -52 -9 -55 -1 -3 -5 -27 -10 -55 -5 -27 -10 -52 -10 -55 -1 -3 -5
-25 -9 -50 -4 -25 -16 -90 -26 -145 -23 -123 -48 -260 -55 -300 -3 -16 -12
-66 -20 -110 -53 -292 -66 -364 -71 -394 -3 -18 -7 -43 -10 -55 -2 -11 -13
-70 -24 -131 -11 -60 -22 -121 -25 -135 -3 -14 -10 -52 -15 -85 -6 -34 -32
-103 -60 -160 -58 -117 -79 -193 -85 -304 -8 -169 57 -324 186 -444 37 -34 73
-66 80 -72 208 -151 536 -254 934 -292 157 -15 650 -8 705 11 8 2 35 7 60 10
123 14 304 65 428 122 323 148 484 421 438 739 -9 60 -51 190 -73 224 -12 19
-14 44 -8 145 4 66 8 137 10 156 2 19 6 78 9 130 4 52 8 124 11 160 6 78 16
234 20 310 4 70 15 251 20 310 2 25 7 92 10 150 3 58 8 130 10 160 2 30 7 102
10 160 4 58 8 121 10 140 2 19 6 91 10 160 4 69 8 141 10 160 2 19 7 89 10
155 13 253 40 331 155 446 66 67 112 96 196 125 76 26 88 27 309 27 170 0 222
-3 270 -17 141 -41 260 -138 320 -261 38 -77 51 -142 60 -310 4 -60 8 -130 10
-155 1 -25 6 -101 9 -170 4 -69 9 -143 11 -165 3 -22 7 -87 10 -145 3 -58 7
-136 10 -175 3 -38 7 -108 10 -155 2 -47 7 -123 10 -170 3 -47 8 -119 10 -160
2 -41 7 -109 9 -150 3 -41 8 -120 11 -175 3 -55 8 -127 10 -160 2 -33 7 -107
10 -165 3 -58 8 -125 10 -150 2 -25 6 -94 10 -155 23 -400 23 -405 50 -510 63
-248 263 -429 605 -548 71 -25 249 -71 315 -81 193 -31 291 -39 510 -40 597
-5 1015 119 1242 368 159 174 201 444 106 686 -28 71 -111 201 -171 267 l-38
42 -53 298 c-29 164 -55 307 -57 318 -4 20 -38 211 -49 275 -3 19 -13 73 -21
120 -9 47 -18 96 -20 110 -3 14 -12 63 -20 110 -9 47 -18 96 -20 110 -3 14
-12 63 -20 110 -9 47 -17 96 -19 110 -2 14 -11 63 -20 110 -16 87 -49 268 -60
330 -3 19 -14 82 -25 140 -11 58 -22 121 -25 140 -3 19 -8 42 -10 50 -2 8 -6
31 -9 50 -8 52 -24 141 -31 170 -3 14 -8 41 -11 60 -2 19 -7 46 -10 60 -2 14
-6 36 -9 50 -3 14 -9 50 -15 80 -6 30 -12 64 -14 75 -7 36 -18 105 -17 110 0
2 -4 18 -9 34 -8 29 -7 29 38 36 111 16 208 85 258 182 29 58 29 59 32 261 l4
202 36 28 c150 112 273 254 328 378 14 32 36 98 50 148 23 85 24 103 20 271
-3 99 -7 194 -10 210 -3 17 -13 77 -21 135 -8 58 -17 116 -20 130 -3 14 -8 41
-11 60 -3 19 -7 42 -9 50 -2 8 -7 29 -10 45 -2 17 -7 39 -9 50 -3 11 -12 54
-21 95 -9 41 -18 84 -21 95 -2 11 -20 83 -39 160 -20 77 -38 148 -40 158 -6
29 -105 375 -126 442 -124 401 -252 791 -325 992 l-33 93 61 41 c165 112 925
682 958 719 3 3 25 21 50 40 25 19 47 37 50 40 3 3 37 30 75 60 59 46 238 190
390 315 192 157 590 493 645 545 9 8 34 30 56 49 52 46 222 200 255 231 15 14
60 57 101 96 41 40 99 84 129 99 146 74 229 133 336 242 141 143 243 334 295
552 22 94 32 277 18 351 -4 25 -11 61 -14 80 -23 139 -114 336 -209 455 -66
82 -185 192 -268 248 -211 140 -429 197 -666 173 -41 -4 -63 -3 -63 4 0 6 7
52 15 103 15 98 22 148 30 212 2 22 7 63 11 90 4 28 8 61 9 75 2 14 6 57 10
95 11 97 12 117 20 225 4 52 9 109 11 125 7 57 6 310 -1 340 -21 84 -90 190
-197 301 l-77 80 -5 145 c-5 135 -9 255 -21 711 -3 103 -7 245 -10 315 -2 70
-7 234 -10 363 -10 370 -13 462 -17 466 -2 2 -75 6 -161 8 l-157 5 -1 -27 c-3
-70 -18 -514 -24 -697 -3 -77 -7 -205 -10 -285 -9 -271 -17 -525 -19 -592 l-1
-67 -30 19 c-34 21 -51 50 -58 100 -3 19 -10 58 -17 85 -6 28 -13 57 -15 65
-5 25 -54 220 -81 320 -181 681 -434 1149 -849 1566 -154 154 -201 197 -356
314 -246 186 -542 356 -809 464 -36 15 -74 31 -85 36 -20 10 -186 70 -260 95
-227 76 -521 147 -790 189 -90 15 -166 25 -215 31 -30 3 -71 8 -90 10 -50 6
-142 14 -235 21 -75 6 -582 13 -588 8z m2423 -8000 c0 -3 -23 -32 -52 -65 -51
-58 -53 -58 -65 -36 -22 40 -15 53 45 80 61 27 72 30 72 21z"/>
</g>
</svg>
