<svg aria-hidden="true" focusable="false" fill="#000000" width="800px" height="800px" viewBox="0 0 24 24" id="right-alt" data-name="Multi Color" xmlns="http://www.w3.org/2000/svg" class="icon multi-color">

<g id="SVGRepo_bgCarrier" stroke-width="0"/>

<g id="SVGRepo_tracerCarrier" stroke-linecap="round" stroke-linejoin="round"/>

<g id="SVGRepo_iconCarrier">

<title style="stroke-width: 2;">right alt</title>

<path id="secondary-fill" d="M11.81,19.36l-1.05-.79a1,1,0,0,1-.24-1.36L12,15H4a1,1,0,0,1-1-1V10A1,1,0,0,1,4,9h8L10.52,6.79a1,1,0,0,1,.24-1.36l1.05-.79,4.77,6.13a2,2,0,0,1,0,2.46Z" style="fill: #2e9c51; stroke-width: 2;"/>

<path id="primary-stroke" d="M13.35,20.54,10.89,18.7a1,1,0,0,1-.23-1.35l1.47-2.22h-8a1,1,0,0,1-1-1v-4a1,1,0,0,1,1-1h8L10.66,6.92a1,1,0,0,1,.23-1.35l2.46-1.85a1,1,0,0,1,1.39.19l5.92,7.61a1,1,0,0,1,0,1.23l-5.92,7.61A1,1,0,0,1,13.35,20.54Z" style="fill: none; stroke: #000000; stroke-linecap: round; stroke-linejoin: round; stroke-width: 2;"/>

</g>

</svg>