<svg aria-hidden="true" focusable="false" height="800px" width="800px" version="1.1" id="Layer_1" xmlns="http://www.w3.org/2000/svg" xmlns:xlink="http://www.w3.org/1999/xlink" viewBox="0 0 512.00 512.00" xml:space="preserve" fill="#000000" stroke="#000000" stroke-width="0.00512" transform="matrix(1, 0, 0, 1, 0, 0)rotate(0)">

<g id="SVGRepo_bgCarrier" stroke-width="0"/>

<g id="SVGRepo_tracerCarrier" stroke-linecap="round" stroke-linejoin="round" stroke="#CCCCCC" stroke-width="10.24"/>

<g id="SVGRepo_iconCarrier"> <g transform="translate(1 1)"> <path style="fill:#50C878;" d="M149.069,113.759c-15.007,0-26.483-23.834-26.483-52.966s11.476-52.966,26.483-52.966 s26.483,23.834,26.483,52.966S164.076,113.759,149.069,113.759"/> <path style="fill:#FFFFFF;" d="M122.586,60.793c0-29.131,11.476-52.966,26.483-52.966c-29.131,0-52.966,23.834-52.966,52.966 s23.834,52.966,52.966,52.966C134.062,113.759,122.586,89.924,122.586,60.793"/> <path style="fill:#2e9c51;" d="M149.069,7.828c15.007,0,26.483,23.834,26.483,52.966s-11.476,52.966-26.483,52.966 c29.131,0,52.966-23.834,52.966-52.966S178.2,7.828,149.069,7.828"/> <path style="fill:#50C878;" d="M255,210.862c-15.007,0-26.483-23.834-26.483-52.966s11.476-52.966,26.483-52.966 s26.483,23.834,26.483,52.966S270.007,210.862,255,210.862"/> <path style="fill:#FFFFFF;" d="M228.517,157.897c0-29.131,11.476-52.966,26.483-52.966c-29.131,0-52.966,23.834-52.966,52.966 s23.834,52.966,52.966,52.966C239.993,210.862,228.517,187.028,228.517,157.897"/> <path style="fill:#2e9c51;" d="M255,104.931c15.007,0,26.483,23.834,26.483,52.966S270.007,210.862,255,210.862 c29.131,0,52.966-23.834,52.966-52.966S284.131,104.931,255,104.931"/> <path style="fill:#50C878;" d="M360.931,307.966c-15.007,0-26.483-23.835-26.483-52.966s11.476-52.966,26.483-52.966 s26.483,23.834,26.483,52.966S375.938,307.966,360.931,307.966"/> <path style="fill:#FFFFFF;" d="M334.448,255c0-29.131,11.476-52.966,26.483-52.966c-29.131,0-52.966,23.834-52.966,52.966 s23.835,52.966,52.966,52.966C345.924,307.966,334.448,284.131,334.448,255"/> <path style="fill:#2e9c51;" d="M360.931,202.034c15.007,0,26.483,23.834,26.483,52.966s-11.476,52.966-26.483,52.966 c29.131,0,52.966-23.835,52.966-52.966S390.062,202.034,360.931,202.034"/> <path style="fill:#50C878;" d="M255,405.069c-15.007,0-26.483-23.835-26.483-52.966c0-29.131,11.476-52.966,26.483-52.966 s26.483,23.834,26.483,52.966C281.483,381.234,270.007,405.069,255,405.069"/> <path style="fill:#FFFFFF;" d="M228.517,352.103c0-29.131,11.476-52.966,26.483-52.966c-29.131,0-52.966,23.834-52.966,52.966 c0,29.131,23.834,52.966,52.966,52.966C239.993,405.069,228.517,381.234,228.517,352.103"/> <path style="fill:#2e9c51;" d="M255,299.138c15.007,0,26.483,23.834,26.483,52.966c0,29.131-11.476,52.966-26.483,52.966 c29.131,0,52.966-23.835,52.966-52.966C307.966,322.972,284.131,299.138,255,299.138"/> <path style="fill:#50C878;" d="M149.069,502.172c-15.007,0-26.483-23.835-26.483-52.966c0-29.131,11.476-52.966,26.483-52.966 s26.483,23.835,26.483,52.966C175.552,478.338,164.076,502.172,149.069,502.172"/> <path style="fill:#FFFFFF;" d="M122.586,449.207c0-29.131,11.476-52.966,26.483-52.966c-29.131,0-52.966,23.835-52.966,52.966 c0,29.131,23.834,52.966,52.966,52.966C134.062,502.172,122.586,478.338,122.586,449.207"/> <path style="fill:#2e9c51;" d="M149.069,396.241c15.007,0,26.483,23.835,26.483,52.966c0,29.131-11.476,52.966-26.483,52.966 c29.131,0,52.966-23.835,52.966-52.966C202.034,420.076,178.2,396.241,149.069,396.241"/> <path d="M360.931,316.793c-34.428,0-61.793-27.366-61.793-61.793s27.366-61.793,61.793-61.793s61.793,27.366,61.793,61.793 S395.359,316.793,360.931,316.793z M360.931,210.862c-24.717,0-44.138,19.421-44.138,44.138s19.421,44.138,44.138,44.138 s44.138-19.421,44.138-44.138S385.648,210.862,360.931,210.862z"/> <path d="M255,219.69c-34.428,0-61.793-27.366-61.793-61.793S220.572,96.103,255,96.103s61.793,27.366,61.793,61.793 S289.428,219.69,255,219.69z M255,113.759c-24.717,0-44.138,19.421-44.138,44.138s19.421,44.138,44.138,44.138 s44.138-19.421,44.138-44.138S279.717,113.759,255,113.759z"/> <path d="M149.069,122.586c-34.428,0-61.793-27.366-61.793-61.793S114.641-1,149.069-1s61.793,27.366,61.793,61.793 S183.497,122.586,149.069,122.586z M149.069,16.655c-24.717,0-44.138,19.421-44.138,44.138s19.421,44.138,44.138,44.138 s44.138-19.421,44.138-44.138S173.786,16.655,149.069,16.655z"/> <path d="M255,413.897c-34.428,0-61.793-27.366-61.793-61.793S220.572,290.31,255,290.31s61.793,27.366,61.793,61.793 S289.428,413.897,255,413.897z M255,307.966c-24.717,0-44.138,19.421-44.138,44.138c0,24.717,19.421,44.138,44.138,44.138 s44.138-19.421,44.138-44.138C299.138,327.386,279.717,307.966,255,307.966z"/> <path d="M149.069,511c-34.428,0-61.793-27.366-61.793-61.793s27.366-61.793,61.793-61.793s61.793,27.366,61.793,61.793 S183.497,511,149.069,511z M149.069,405.069c-24.717,0-44.138,19.421-44.138,44.138c0,24.717,19.421,44.138,44.138,44.138 s44.138-19.421,44.138-44.138C193.207,424.49,173.786,405.069,149.069,405.069z"/> </g> </g>

</svg>