<svg aria-hidden="true" focusable="false" width="800px" height="800px" viewBox="0 0 24 24" id="sun-cloudy" xmlns="http://www.w3.org/2000/svg" class="icon multi-color" fill="#000000">

<g id="SVGRepo_bgCarrier" stroke-width="0"/>

<g id="SVGRepo_tracerCarrier" stroke-linecap="round" stroke-linejoin="round"/>

<g id="SVGRepo_iconCarrier">

<title style="stroke-width: 2;">sun cloudy</title>

<path id="secondary-fill" d="M13,10A4.32,4.32,0,0,0,9.4,13.79a2.27,2.27,0,0,0-.9-.19,2.73,2.73,0,0,0-.5.05H8A3.25,3.25,0,0,1,7,13,3.45,3.45,0,0,1,6,10.5a3.5,3.5,0,0,1,6.69-1.43A3.6,3.6,0,0,1,13,10Z" style="fill: #2e9c51; stroke-width: 2;"/>

<path id="secondary-stroke" d="M9,4V3M4.05,6.05l-.71-.71M14,6.05l.71-.71" style="fill: none; stroke: #2e9c51; stroke-linecap: round; stroke-linejoin: round; stroke-width: 2;"/>

<path id="tertiary-fill" d="M20.7,16.9a3.32,3.32,0,0,1-3,2.1H8.5a2.46,2.46,0,0,1-2.08-1.2A2.46,2.46,0,0,1,8.5,16.6a2.27,2.27,0,0,1,.9.19A4.27,4.27,0,0,1,13.5,13a4.1,4.1,0,0,1,3.4,1.91,2.76,2.76,0,0,1,.77-.11A3.32,3.32,0,0,1,20.7,16.9Z" style="fill: #b7b7b7; stroke-width: 2;"/>

<path id="primary-stroke" d="M21,15.4a3.9,3.9,0,0,1-.3,1.5,3.32,3.32,0,0,1-3,2.1H8.5a2.46,2.46,0,0,1-2.08-1.2A2.91,2.91,0,0,1,6,16.3a2.67,2.67,0,0,1,2-2.65H8a2.73,2.73,0,0,1,.5-.05,2.27,2.27,0,0,1,.9.19A4.32,4.32,0,0,1,13,10a3.08,3.08,0,0,1,.53,0,4.1,4.1,0,0,1,3.4,1.91,2.76,2.76,0,0,1,.77-.11A3.47,3.47,0,0,1,21,15.4Z" style="fill: none; stroke: #000000; stroke-linecap: round; stroke-linejoin: round; stroke-width: 2;"/>

</g>

</svg>