<svg aria-label="Community - people connected" height="800px" width="800px" version="1.1" id="Layer_1" xmlns="http://www.w3.org/2000/svg" xmlns:xlink="http://www.w3.org/1999/xlink" 
	 viewBox="0 0 511.994 511.994" xml:space="preserve">
<circle style="fill:#6B7F9E;" cx="255.997" cy="255.997" r="255.997"/>
<polygon style="fill:#FFFFFF;" points="177.438,161.081 255.997,244.867 334.556,161.081 345.644,171.512 266.428,255.997 
	345.644,340.482 334.556,350.913 255.997,267.127 177.438,350.913 166.356,340.482 245.566,255.997 166.356,171.512 "/>
<path style="fill:#ECF0F1;" d="M255.997,195.897c33.191,0,60.112,26.909,60.112,60.1s-26.921,60.106-60.112,60.106
	s-60.106-26.915-60.106-60.106S222.806,195.897,255.997,195.897z"/>
<path style="fill:#FFE356;" d="M255.997,200.98c30.384,0,55.017,24.626,55.017,55.017c0,30.378-24.626,55.017-55.017,55.017
	c-30.378,0-55.017-24.638-55.017-55.017C200.98,225.607,225.619,200.98,255.997,200.98z"/>
<path style="fill:#FFFFFF;" d="M235.496,276.944h1.433l8.402-4.583l1.367-5.348c-2-2.018-4.071-5.438-5.95-9.648
	c-0.151,0.024-0.307,0.036-0.47,0.036c-2.222,0-4.421-2.415-4.914-5.396c-0.385-2.337,0.385-4.324,1.807-5.077
	c-1.879-9.582-3.126-24.295,13.376-27.933c9.901-2.18,13.436,5.463,13.87,6.3c5.992-3.361,9.799,1.68,10.774,4.348
	c1.771,4.824,1.192,13.798,0.289,17.761c1,0.952,1.482,2.656,1.156,4.601c-0.488,2.933-2.62,5.318-4.806,5.396
	c-1.765,3.873-4.125,7.197-6.535,9.612l1.367,5.348h0.114l8.173,4.583h1.548c10.082,0,18.447,7.414,19.501,16.815
	c-10.034,10.624-24.247,17.261-40.008,17.261s-29.975-6.637-40.008-17.261c1.054-9.419,9.419-16.815,19.501-16.815H235.496z"/>
<g>
	<path style="fill:#ECF0F1;" d="M148.686,82.889c32.39,0,58.66,26.253,58.66,58.642c0,32.384-26.271,58.654-58.66,58.654
		s-58.654-26.271-58.654-58.654C90.032,109.142,116.297,82.889,148.686,82.889z"/>
	<path style="fill:#ECF0F1;" d="M148.686,311.809c32.39,0,58.66,26.253,58.66,58.642s-26.271,58.66-58.66,58.66
		s-58.654-26.271-58.654-58.66S116.297,311.809,148.686,311.809z"/>
	<path style="fill:#ECF0F1;" d="M363.314,311.809c32.39,0,58.654,26.253,58.654,58.642s-26.265,58.66-58.654,58.66
		s-58.66-26.271-58.66-58.66S330.924,311.809,363.314,311.809z"/>
	<path style="fill:#ECF0F1;" d="M363.314,82.889c32.39,0,58.654,26.253,58.654,58.642c0,32.384-26.265,58.654-58.654,58.654
		s-58.66-26.271-58.66-58.654C304.654,109.142,330.924,82.889,363.314,82.889z"/>
</g>
<path style="fill:#FF7069;" d="M148.686,89.123c28.945,0,52.421,23.464,52.421,52.409s-23.476,52.421-52.421,52.421
	s-52.421-23.476-52.421-52.421S119.742,89.123,148.686,89.123z"/>
<path style="fill:#FFFFFF;" d="M129.637,162.297h1.331l7.805-4.258l1.271-4.969c-1.861-1.879-3.782-5.059-5.529-8.962
	c-0.145,0.024-0.289,0.03-0.44,0.03c-2.06,0-4.101-2.246-4.565-5.017c-0.361-2.168,0.361-4.017,1.674-4.716
	c-1.747-8.901-2.903-22.573,12.431-25.951c9.197-2.03,12.485,5.077,12.882,5.854c5.571-3.126,9.106,1.56,10.016,4.041
	c1.644,4.481,1.108,12.81,0.271,16.496c0.927,0.885,1.373,2.469,1.072,4.276c-0.452,2.722-2.439,4.939-4.463,5.011
	c-1.638,3.602-3.836,6.685-6.071,8.932l1.271,4.969h0.108l7.588,4.258h1.445c9.552,0,17.441,7.161,18.17,16.135
	c-9.498,9.582-22.669,15.52-37.226,15.52c-14.551,0-27.722-5.938-37.22-15.52c0.723-8.992,8.618-16.135,18.17-16.135
	L129.637,162.297z"/>
<path style="fill:#83CF8F;" d="M363.308,89.123c28.957,0,52.421,23.464,52.421,52.409s-23.464,52.421-52.421,52.421
	c-28.945,0-52.409-23.476-52.409-52.421S334.363,89.123,363.308,89.123z"/>
<path style="fill:#FFFFFF;" d="M344.258,162.297h1.337l7.805-4.258l1.271-4.969c-1.861-1.879-3.782-5.059-5.535-8.962
	c-0.139,0.024-0.283,0.03-0.434,0.03c-2.06,0-4.107-2.246-4.565-5.017c-0.361-2.168,0.361-4.017,1.674-4.716
	c-1.747-8.901-2.903-22.573,12.431-25.951c9.197-2.03,12.485,5.077,12.882,5.854c5.571-3.126,9.106,1.56,10.016,4.041
	c1.644,4.481,1.108,12.81,0.271,16.496c0.921,0.885,1.373,2.469,1.072,4.276c-0.452,2.722-2.439,4.939-4.463,5.011
	c-1.638,3.602-3.836,6.685-6.071,8.932l1.271,4.969h0.108l7.589,4.258h1.445c9.552,0,17.441,7.161,18.17,16.135
	c-9.498,9.582-22.669,15.52-37.226,15.52s-27.722-5.938-37.22-15.52c0.729-8.992,8.618-16.135,18.17-16.135V162.297z"/>
<path style="fill:#83CF8F;" d="M148.686,318.042c28.945,0,52.421,23.464,52.421,52.409c0,28.957-23.476,52.421-52.421,52.421
	s-52.421-23.464-52.421-52.421C96.265,341.506,119.742,318.042,148.686,318.042z"/>
<path style="fill:#FFFFFF;" d="M187.64,405.526c-9.594,10.648-23.494,17.345-38.954,17.345s-29.36-6.697-38.954-17.345
	c1.728-8.468,9.546-14.906,18.863-14.906h1.409l8.233-4.493l1.337-5.24c-1.963-1.981-3.987-5.33-5.83-9.456
	c-0.151,0.024-0.301,0.036-0.458,0.036c-2.174,0-4.33-2.367-4.818-5.288c-0.379-2.283,0.379-4.234,1.771-4.969
	c-1.843-9.389-3.066-23.807,13.105-27.373c9.702-2.132,13.165,5.354,13.587,6.173c5.872-3.294,9.606,1.644,10.558,4.258
	c1.735,4.728,1.168,13.515,0.289,17.399c0.976,0.927,1.451,2.602,1.132,4.511c-0.476,2.873-2.572,5.21-4.71,5.288
	c-1.728,3.8-4.047,7.052-6.402,9.419l1.343,5.24h0.114l8.004,4.493h1.524c9.305,0,17.128,6.456,18.863,14.906H187.64z"/>
<path style="fill:#FF7069;" d="M363.308,318.042c28.957,0,52.421,23.464,52.421,52.409c0,28.957-23.464,52.421-52.421,52.421
	c-28.945,0-52.409-23.464-52.409-52.421C310.899,341.506,334.363,318.042,363.308,318.042z"/>
<path style="fill:#FFFFFF;" d="M402.413,405.364c-9.6,10.744-23.554,17.508-39.105,17.508c-15.538,0-29.499-6.763-39.093-17.508
	c2.036-8.173,9.727-14.286,18.845-14.286h1.421l8.299-4.529l1.349-5.276c-1.975-1.999-4.017-5.372-5.878-9.528
	c-0.151,0.024-0.301,0.036-0.464,0.036c-2.186,0-4.366-2.385-4.854-5.33c-0.379-2.307,0.385-4.27,1.783-5.011
	c-1.855-9.468-3.084-24,13.214-27.59c9.775-2.15,13.274,5.396,13.695,6.221c5.92-3.318,9.678,1.662,10.642,4.294
	c1.747,4.764,1.18,13.623,0.289,17.538c0.988,0.94,1.464,2.62,1.144,4.547c-0.482,2.897-2.59,5.252-4.746,5.33
	c-1.741,3.83-4.083,7.113-6.456,9.492l1.349,5.282h0.114l8.07,4.529h1.536c9.112,0,16.809,6.131,18.845,14.292V405.364z"/>
</svg>