<svg aria-hidden="true" focusable="false" xmlns="http://www.w3.org/2000/svg" xmlns:xlink="http://www.w3.org/1999/xlink" version="1.1" width="1080" height="1080" viewBox="0 0 1080 1080" xml:space="preserve">
<desc>Created with Fabric.js 5.2.4</desc>
<defs>
</defs>
<g transform="matrix(1 0 0 1 540 540)" id="5d328e7e-84e6-44f9-8665-6e142e511936"  >
<rect style="stroke: none; stroke-width: 1; stroke-dasharray: none; stroke-linecap: butt; stroke-dashoffset: 0; stroke-linejoin: miter; stroke-miterlimit: 4; fill: rgb(255,255,255); fill-rule: nonzero; opacity: 1; visibility: hidden;" vector-effect="non-scaling-stroke"  x="-540" y="-540" rx="0" ry="0" width="1080" height="1080" />
</g>
<g transform="matrix(1 0 0 1 540 540)" id="69ae7fca-1205-42cb-abf8-7bad8cf23453"  >
</g>
<g transform="matrix(1.35 0 0 1.35 540 540)" id="Layer_1"  >
<path style="stroke: none; stroke-width: 1; stroke-dasharray: none; stroke-linecap: butt; stroke-dashoffset: 0; stroke-linejoin: miter; stroke-miterlimit: 4; fill: rgb(99,44,166); fill-rule: evenodd; opacity: 1;"  transform=" translate(-400.27, -428.42)" d="M 670.38 608.27 L 599.14 561.28 L 539.71 660.55 L 470.59000000000003 640.3399999999999 L 409.73 733.2299999999999 L 412.85 762.4699999999999 L 743.75 701.4999999999999 L 724.53 494.7499999999999 L 670.38 608.27 z M 361.79 519.13 L 414.88 511.83 C 423.46999999999997 515.6899999999999 429.45 517.16 439.75 519.78 C 455.79 523.9599999999999 474.36 527.97 501.86 514.11 C 508.26 510.94 521.59 498.75 526.98 491.8 L 744.5 452.34000000000003 L 766.69 720.9000000000001 L 394.0400000000001 788.0600000000001 L 361.79 519.13 z M 765.85 422.36 L 744.38 426.45 L 703.13 0.27 L 0.27 81.77 L 86.86 784.4499999999999 L 169.13 772.5099999999999 C 162.56 763.1299999999999 152.32999999999998 751.7799999999999 134.85999999999999 737.2499999999999 C 110.62999999999998 717.1199999999999 119.19999999999999 682.9299999999998 133.48999999999998 661.3399999999999 C 152.39999999999998 624.8599999999999 249.82999999999998 578.4999999999999 244.30999999999997 520.1899999999999 C 242.32999999999998 498.98999999999995 238.95999999999998 471.38999999999993 219.27999999999997 452.47999999999996 C 218.53999999999996 460.33 219.86999999999998 467.89 219.86999999999998 467.89 C 219.86999999999998 467.89 211.78999999999996 457.58 207.76 443.52 C 203.76 438.13 200.62 436.40999999999997 196.37 429.21 C 193.34 437.53999999999996 193.74 447.2 193.74 447.2 C 193.74 447.2 187.13 431.58 186.06 418.4 C 182.14000000000001 424.29999999999995 181.15 435.51 181.15 435.51 C 181.15 435.51 172.56 410.89 174.52 397.63 C 170.60000000000002 386.09 158.98000000000002 363.19 162.27 311.14 C 183.72 326.16999999999996 230.94 322.59999999999997 249.34 295.47999999999996 C 255.45000000000002 286.49999999999994 259.63 261.97999999999996 246.29 213.66999999999996 C 237.72 182.68999999999997 216.5 136.55999999999995 208.23 119.05999999999996 L 207.23999999999998 119.76999999999995 C 211.6 133.86999999999995 220.58999999999997 163.42999999999995 224.04 177.75999999999996 C 234.48 221.22999999999996 237.28 236.35999999999996 232.38 256.4 C 228.21 273.82 218.21 285.21999999999997 192.85999999999999 297.96 C 167.51 310.73999999999995 133.86999999999998 279.64 131.73999999999998 277.91999999999996 C 107.10999999999999 258.29999999999995 88.05999999999997 226.28999999999996 85.92999999999998 210.73999999999995 C 83.71999999999998 193.71999999999994 95.73999999999998 183.49999999999994 101.79999999999998 169.57999999999996 C 93.12999999999998 172.05999999999995 83.45999999999998 176.45999999999995 83.45999999999998 176.45999999999995 C 83.45999999999998 176.45999999999995 94.99999999999997 164.51999999999995 109.22999999999998 154.18999999999994 C 115.11999999999998 150.28999999999994 118.57999999999997 147.80999999999995 124.78999999999998 142.64999999999995 C 115.79999999999998 142.49999999999994 108.49999999999997 142.75999999999996 108.49999999999997 142.75999999999996 C 108.49999999999997 142.75999999999996 123.48999999999997 134.65999999999997 139.02999999999997 128.75999999999996 C 127.65999999999997 128.25999999999996 116.77999999999997 128.67999999999995 116.77999999999997 128.67999999999995 C 116.77999999999997 128.67999999999995 150.22999999999996 113.71999999999994 176.64999999999998 102.73999999999995 C 194.82 95.28999999999995 212.57 97.48999999999995 222.53999999999996 111.90999999999995 C 235.62999999999997 130.79999999999995 249.37999999999997 141.05999999999995 278.52 147.41999999999996 C 296.40999999999997 139.48999999999995 301.84999999999997 135.40999999999997 324.33 129.28999999999996 C 344.12 107.52999999999996 359.65999999999997 104.70999999999997 359.65999999999997 104.70999999999997 C 359.65999999999997 104.70999999999997 351.95 111.77999999999997 349.89 122.88999999999996 C 361.11 114.04999999999995 373.40999999999997 106.66999999999996 373.40999999999997 106.66999999999996 C 373.40999999999997 106.66999999999996 368.65 112.54999999999995 364.21 121.88999999999996 L 365.23999999999995 123.41999999999996 C 378.3299999999999 115.56999999999996 393.71999999999997 109.37999999999997 393.71999999999997 109.37999999999997 C 393.71999999999997 109.37999999999997 389.32 114.93999999999997 384.15999999999997 122.13999999999997 C 394.03 122.05999999999997 414.04999999999995 122.55999999999997 421.81999999999994 123.43999999999997 C 467.68999999999994 124.44999999999997 477.2099999999999 74.44999999999996 494.80999999999995 68.17999999999998 C 516.8499999999999 60.30999999999998 526.6999999999999 55.549999999999976 564.26 92.43999999999998 C 596.49 124.10999999999999 621.67 180.79999999999998 609.17 193.5 C 598.6899999999999 204.04 578.01 189.39 555.0899999999999 160.82 C 542.9799999999999 145.69 533.8199999999999 127.81 529.53 105.07999999999998 C 525.91 85.89999999999998 511.82 74.76999999999998 511.82 74.76999999999998 C 511.82 74.76999999999998 520 92.95 520 109.01 C 520 117.78 521.1 150.57 535.16 168.97 C 533.77 171.66 533.12 182.28 531.5799999999999 184.31 C 515.2199999999999 164.54 480.0899999999999 150.39 474.3599999999999 146.22 C 493.7499999999999 162.11 538.3199999999999 198.61 555.4399999999999 233.59 C 571.63 266.67 562.0899999999999 296.99 570.28 304.84000000000003 C 572.61 307.09000000000003 605.1 347.57000000000005 611.35 367.91 C 622.25 403.36 612 440.61 597.73 463.72 L 557.88 469.93 C 552.05 468.31 548.12 467.5 542.89 464.47 C 545.77 459.37 551.5 446.65000000000003 551.56 444.03000000000003 L 549.31 440.08000000000004 C 536.91 457.65000000000003 516.13 474.71000000000004 498.86999999999995 484.51000000000005 C 476.28 497.31000000000006 450.23999999999995 495.34000000000003 433.28999999999996 490.09000000000003 C 385.17999999999995 475.25000000000006 339.68999999999994 442.74 328.71999999999997 434.20000000000005 C 328.71999999999997 434.20000000000005 328.38 441.02000000000004 330.45 442.55000000000007 C 342.58 456.2300000000001 370.37 480.9800000000001 397.23 498.2300000000001 L 339.97 504.5300000000001 L 367.04 715.3100000000001 C 355.04 717.0300000000001 353.17 717.87 340.03000000000003 719.74 C 328.45000000000005 678.83 306.3 652.12 282.09000000000003 636.56 C 260.74 622.8399999999999 231.29000000000002 619.75 203.10000000000002 625.3299999999999 L 201.29000000000002 627.43 C 220.89000000000001 625.39 244.03000000000003 628.2299999999999 267.8 643.28 C 291.13 658.03 309.93 696.13 316.85 719.0699999999999 C 325.71000000000004 748.39 331.84000000000003 779.7499999999999 307.99 812.9899999999999 C 291.02 836.6199999999999 241.48000000000002 849.6799999999998 201.46 821.43 C 212.15 838.62 226.60000000000002 852.68 246.05 855.3299999999999 C 274.93 859.2499999999999 302.34000000000003 854.2399999999999 321.21000000000004 834.8699999999999 C 337.32000000000005 818.31 345.86 783.6799999999998 343.61 747.2099999999999 L 369.1 743.5099999999999 L 378.3 808.9699999999999 L 800.28 758.1599999999999 L 765.85 422.36 z M 509.12 244.59 C 507.94 247.28 506.09000000000003 249.04 508.87 257.79 L 509.04 258.29 L 509.48 259.42 L 510.64000000000004 262.04 C 515.6500000000001 272.28000000000003 521.1500000000001 281.94 530.34 286.87 C 532.72 286.47 535.1800000000001 286.2 537.73 286.07 C 546.36 285.69 551.8100000000001 287.06 555.27 288.92 C 555.5799999999999 287.2 555.65 284.68 555.46 280.97 C 554.7900000000001 268 558.0300000000001 245.94000000000003 533.1 234.33000000000004 C 523.69 229.96000000000004 510.49 231.31000000000003 506.09000000000003 236.76000000000005 C 506.89000000000004 236.86000000000004 507.61 237.03000000000006 508.17 237.22000000000006 C 514.82 239.55 510.31 241.84 509.12 244.59 M 578.99 365.61 C 575.72 363.81 560.44 364.52000000000004 549.7 365.8 C 529.24 368.21000000000004 507.15000000000003 375.31 502.31000000000006 379.09000000000003 C 493.51000000000005 385.89000000000004 497.51000000000005 397.75000000000006 504.01000000000005 402.62 C 522.24 416.24 538.22 425.37 555.09 423.15 C 565.45 421.78999999999996 574.58 405.39 581.0500000000001 390.51 C 585.48 380.26 585.48 369.2 578.99 365.61 M 397.85 260.65 C 403.62 255.17 369.11 247.96999999999997 342.33000000000004 266.22999999999996 C 322.58000000000004 279.7 321.95000000000005 308.58 340.86 324.94999999999993 C 342.75 326.56999999999994 344.31 327.7199999999999 345.77000000000004 328.6599999999999 C 351.29 326.0599999999999 357.58000000000004 323.4299999999999 364.82000000000005 321.0799999999999 C 377.05000000000007 317.1099999999999 387.22 315.05999999999995 395.58000000000004 313.9699999999999 C 399.58000000000004 309.4999999999999 404.23 301.62999999999994 403.07000000000005 287.37999999999994 C 401.49 268.05 386.84 271.12 397.85 260.65" stroke-linecap="round" />
</g>
</svg>