<svg id="visual" viewBox="0 0 1512 60" xmlns="http://www.w3.org/2000/svg" xmlns:xlink="http://www.w3.org/1999/xlink" version="1.1"><rect x="0" y="0" fill="#23262d"></rect><path d="M0 9L31.5 10.7C63 12.3 126 15.7 189 17.7C252 19.7 315 20.3 378 21.3C441 22.3 504 23.7 567 22.2C630 20.7 693 16.3 756 13.8C819 11.3 882 10.7 945 12.3C1008 14 1071 18 1134 20.7C1197 23.3 1260 24.7 1323 22.5C1386 20.3 1449 14.7 1480.5 11.8L1512 9L1512 61L1480.5 61C1449 61 1386 61 1323 61C1260 61 1197 61 1134 61C1071 61 1008 61 945 61C882 61 819 61 756 61C693 61 630 61 567 61C504 61 441 61 378 61C315 61 252 61 189 61C126 61 63 61 31.5 61L0 61Z" fill="#50c878"></path><path d="M0 34L31.5 32.2C63 30.3 126 26.7 189 25C252 23.3 315 23.7 378 24.2C441 24.7 504 25.3 567 27.7C630 30 693 34 756 35.2C819 36.3 882 34.7 945 32.5C1008 30.3 1071 27.7 1134 26.8C1197 26 1260 27 1323 28.8C1386 30.7 1449 33.3 1480.5 34.7L1512 36L1512 61L1480.5 61C1449 61 1386 61 1323 61C1260 61 1197 61 1134 61C1071 61 1008 61 945 61C882 61 819 61 756 61C693 61 630 61 567 61C504 61 441 61 378 61C315 61 252 61 189 61C126 61 63 61 31.5 61L0 61Z" fill="#009ad5"></path><path d="M0 45L31.5 45.8C63 46.7 126 48.3 189 47C252 45.7 315 41.3 378 41.2C441 41 504 45 567 46.8C630 48.7 693 48.3 756 46.7C819 45 882 42 945 40.2C1008 38.3 1071 37.7 1134 38C1197 38.3 1260 39.7 1323 40.8C1386 42 1449 43 1480.5 43.5L1512 44L1512 61L1480.5 61C1449 61 1386 61 1323 61C1260 61 1197 61 1134 61C1071 61 1008 61 945 61C882 61 819 61 756 61C693 61 630 61 567 61C504 61 441 61 378 61C315 61 252 61 189 61C126 61 63 61 31.5 61L0 61Z" fill="#3844c6"></path></svg>