<svg aria-hidden="true" focusable="false" id="visual" viewBox="0 0 1512 200" xmlns="http://www.w3.org/2000/svg" xmlns:xlink="http://www.w3.org/1999/xlink" version="1.1"><g stroke-width="1" stroke-linejoin="bevel"><path d="M745.6 106.3L706.4 180.3L760 120.7Z" fill="#3c32a8" stroke="#3c32a8"></path><path d="M706.4 180.3L761.4 200L760 120.7Z" fill="#3a3ebc" stroke="#3a3ebc"></path><path d="M722 200L761.4 200L706.4 180.3Z" fill="#34106e" stroke="#34106e"></path><path d="M583.8 94.3L692 207.3L706.4 180.3Z" fill="#34106e" stroke="#34106e"></path><path d="M706.4 180.3L692 207.3L722 200Z" fill="#3c2d9e" stroke="#3c2d9e"></path><path d="M722 200L692 207.3L761.4 200Z" fill="#34106e" stroke="#34106e"></path><path d="M692 207.3L850.6 200L761.4 200Z" fill="#3b2794" stroke="#3b2794"></path><path d="M761.4 200L850.6 200L760 120.7Z" fill="#3a218a" stroke="#3a218a"></path><path d="M762.4 0L710 0L745.6 106.3Z" fill="#3a3ebc" stroke="#3a3ebc"></path><path d="M762.4 0L745.6 106.3L784.6 -0.3Z" fill="#361677" stroke="#361677"></path><path d="M745.6 106.3L583.8 94.3L706.4 180.3Z" fill="#3c2d9e" stroke="#3c2d9e"></path><path d="M710 0L666.4 8.7L745.6 106.3Z" fill="#3a3ebc" stroke="#3a3ebc"></path><path d="M784.6 -0.3L745.6 106.3L760 120.7Z" fill="#3a218a" stroke="#3a218a"></path><path d="M666.4 8.7L583.8 94.3L745.6 106.3Z" fill="#310a65" stroke="#310a65"></path><path d="M828.6 0L784.6 -0.3L760 120.7Z" fill="#3a218a" stroke="#3a218a"></path><path d="M762.4 0L548.8 -24.3L710 0Z" fill="#361677" stroke="#361677"></path><path d="M710 0L626.2 0L666.4 8.7Z" fill="#34106e" stroke="#34106e"></path><path d="M666.4 8.7L626.2 0L583.8 94.3Z" fill="#3c2d9e" stroke="#3c2d9e"></path><path d="M548.8 -24.3L626.2 0L710 0Z" fill="#361677" stroke="#361677"></path><path d="M838.2 0L828.6 0L901.2 44.3Z" fill="#3c32a8" stroke="#3c32a8"></path><path d="M901.2 44.3L828.6 0L760 120.7Z" fill="#3a218a" stroke="#3a218a"></path><path d="M954.2 -24.3L762.4 0L784.6 -0.3Z" fill="#310a65" stroke="#310a65"></path><path d="M548.8 -24.3L604.8 0L626.2 0Z" fill="#361677" stroke="#361677"></path><path d="M626.2 0L604.8 0L583.8 94.3Z" fill="#3b2794" stroke="#3b2794"></path><path d="M692 207.3L901.8 200L850.6 200Z" fill="#3a3ebc" stroke="#3a3ebc"></path><path d="M850.6 200L901.2 44.3L760 120.7Z" fill="#310a65" stroke="#310a65"></path><path d="M517.6 116.3L540.8 200L583.8 94.3Z" fill="#381c81" stroke="#381c81"></path><path d="M583.8 94.3L540.8 200L692 207.3Z" fill="#3b38b2" stroke="#3b38b2"></path><path d="M901.8 200L901.2 44.3L850.6 200Z" fill="#3a218a" stroke="#3a218a"></path><path d="M548.6 0L517.6 116.3L583.8 94.3Z" fill="#3c2d9e" stroke="#3c2d9e"></path><path d="M548.8 -24.3L548.6 0L604.8 0Z" fill="#381c81" stroke="#381c81"></path><path d="M604.8 0L548.6 0L583.8 94.3Z" fill="#3b38b2" stroke="#3b38b2"></path><path d="M960.4 91.7L931.8 49.7L901.2 44.3Z" fill="#3c32a8" stroke="#3c32a8"></path><path d="M901.2 44.3L954.2 -24.3L838.2 0Z" fill="#3c32a8" stroke="#3c32a8"></path><path d="M517.6 116.3L496.2 184.3L540.8 200Z" fill="#361677" stroke="#361677"></path><path d="M445.6 200L496.2 184.3L517.6 116.3Z" fill="#3b2794" stroke="#3b2794"></path><path d="M1380.4 230.3L951.2 200L901.8 200Z" fill="#3a218a" stroke="#3a218a"></path><path d="M901.8 200L960.4 91.7L901.2 44.3Z" fill="#3b38b2" stroke="#3b38b2"></path><path d="M496.2 184.3L494.2 200L540.8 200Z" fill="#3844c6" stroke="#3844c6"></path><path d="M540.8 200L494.2 200L692 207.3Z" fill="#34106e" stroke="#34106e"></path><path d="M951.2 200L960.4 91.7L901.8 200Z" fill="#3a3ebc" stroke="#3a3ebc"></path><path d="M954.2 -24.3L548.8 -24.3L762.4 0Z" fill="#3c32a8" stroke="#3c32a8"></path><path d="M548.6 0L479.2 31.7L517.6 116.3Z" fill="#3a218a" stroke="#3a218a"></path><path d="M954.2 -24.3L784.6 -0.3L828.6 0Z" fill="#34106e" stroke="#34106e"></path><path d="M457.6 -15.3L479.2 31.7L548.6 0Z" fill="#3a218a" stroke="#3a218a"></path><path d="M496.2 184.3L445.6 200L494.2 200Z" fill="#3c2d9e" stroke="#3c2d9e"></path><path d="M931.8 49.7L954.2 -24.3L901.2 44.3Z" fill="#361677" stroke="#361677"></path><path d="M838.2 0L954.2 -24.3L828.6 0Z" fill="#3b2794" stroke="#3b2794"></path><path d="M992.8 0L954.2 -24.3L931.8 49.7Z" fill="#361677" stroke="#361677"></path><path d="M369 178.3L445.6 200L367.4 53.7Z" fill="#3a3ebc" stroke="#3a3ebc"></path><path d="M494.2 200L445.6 200L692 207.3Z" fill="#3c32a8" stroke="#3c32a8"></path><path d="M1077.4 0L992.8 0L960.4 91.7Z" fill="#381c81" stroke="#381c81"></path><path d="M960.4 91.7L992.8 0L931.8 49.7Z" fill="#3a3ebc" stroke="#3a3ebc"></path><path d="M548.8 -24.3L457.6 -15.3L548.6 0Z" fill="#3b38b2" stroke="#3b38b2"></path><path d="M367.4 53.7L445.6 200L517.6 116.3Z" fill="#361677" stroke="#361677"></path><path d="M951.2 200L1045.8 180.3L960.4 91.7Z" fill="#310a65" stroke="#310a65"></path><path d="M457.6 -15.3L414 0L479.2 31.7Z" fill="#381c81" stroke="#381c81"></path><path d="M548.8 -24.3L429 -31.3L457.6 -15.3Z" fill="#3b2794" stroke="#3b2794"></path><path d="M457.6 -15.3L429 -31.3L414 0Z" fill="#3a3ebc" stroke="#3a3ebc"></path><path d="M954.2 -24.3L429 -31.3L548.8 -24.3Z" fill="#310a65" stroke="#310a65"></path><path d="M367.4 53.7L517.6 116.3L479.2 31.7Z" fill="#381c81" stroke="#381c81"></path><path d="M1098 200L1089 176.3L1045.8 180.3Z" fill="#361677" stroke="#361677"></path><path d="M1045.8 180.3L1077.4 0L960.4 91.7Z" fill="#34106e" stroke="#34106e"></path><path d="M271.4 0L367.4 53.7L414 0Z" fill="#3b38b2" stroke="#3b38b2"></path><path d="M414 0L367.4 53.7L479.2 31.7Z" fill="#3a3ebc" stroke="#3a3ebc"></path><path d="M1380.4 230.3L1098 200L951.2 200Z" fill="#3844c6" stroke="#3844c6"></path><path d="M951.2 200L1098 200L1045.8 180.3Z" fill="#3b38b2" stroke="#3b38b2"></path><path d="M1120 25.7L1077.4 0L1045.8 180.3Z" fill="#3b2794" stroke="#3b2794"></path><path d="M992.8 0L1077.4 0L954.2 -24.3Z" fill="#3b2794" stroke="#3b2794"></path><path d="M1120 25.7L1045.8 180.3L1089 176.3Z" fill="#3b2794" stroke="#3b2794"></path><path d="M1098 200L1113.6 192.3L1089 176.3Z" fill="#3c2d9e" stroke="#3c2d9e"></path><path d="M320.8 196.3L334.4 200L369 178.3Z" fill="#3a218a" stroke="#3a218a"></path><path d="M369 178.3L334.4 200L445.6 200Z" fill="#3a218a" stroke="#3a218a"></path><path d="M445.6 200L334.4 200L692 207.3Z" fill="#3844c6" stroke="#3844c6"></path><path d="M262.4 164.3L320.8 196.3L369 178.3Z" fill="#381c81" stroke="#381c81"></path><path d="M312.8 200L317 200L320.8 196.3Z" fill="#3c32a8" stroke="#3c32a8"></path><path d="M320.8 196.3L317 200L334.4 200Z" fill="#3c32a8" stroke="#3c32a8"></path><path d="M334.4 200L317 200L692 207.3Z" fill="#3a3ebc" stroke="#3a3ebc"></path><path d="M1149.4 143.3L1120 25.7L1089 176.3Z" fill="#3c2d9e" stroke="#3c2d9e"></path><path d="M262.4 164.3L312.8 200L320.8 196.3Z" fill="#3a3ebc" stroke="#3a3ebc"></path><path d="M317 200L312.8 200L692 207.3Z" fill="#34106e" stroke="#34106e"></path><path d="M1113.6 192.3L1149.4 143.3L1089 176.3Z" fill="#381c81" stroke="#381c81"></path><path d="M1098 200L1155.4 200L1113.6 192.3Z" fill="#3b38b2" stroke="#3b38b2"></path><path d="M1113.6 192.3L1155.4 200L1149.4 143.3Z" fill="#310a65" stroke="#310a65"></path><path d="M1380.4 230.3L1155.4 200L1098 200Z" fill="#310a65" stroke="#310a65"></path><path d="M1149.4 143.3L1177.6 78.7L1120 25.7Z" fill="#3b38b2" stroke="#3b38b2"></path><path d="M1210.6 200L1177.6 78.7L1149.4 143.3Z" fill="#3b2794" stroke="#3b2794"></path><path d="M367.4 53.7L262.4 164.3L369 178.3Z" fill="#3844c6" stroke="#3844c6"></path><path d="M246.8 48.7L262.4 164.3L367.4 53.7Z" fill="#3b2794" stroke="#3b2794"></path><path d="M429 -31.3L271.4 0L414 0Z" fill="#310a65" stroke="#310a65"></path><path d="M271.4 0L246.8 48.7L367.4 53.7Z" fill="#3b38b2" stroke="#3b38b2"></path><path d="M1380.4 230.3L1210.6 200L1155.4 200Z" fill="#381c81" stroke="#381c81"></path><path d="M1155.4 200L1210.6 200L1149.4 143.3Z" fill="#3b38b2" stroke="#3b38b2"></path><path d="M1239.6 0L1226 0L1287.2 73.3Z" fill="#3c2d9e" stroke="#3c2d9e"></path><path d="M1177.6 78.7L1226 0L1120 25.7Z" fill="#34106e" stroke="#34106e"></path><path d="M1120 25.7L1226 0L1077.4 0Z" fill="#3c2d9e" stroke="#3c2d9e"></path><path d="M1077.4 0L1226 0L954.2 -24.3Z" fill="#3b38b2" stroke="#3b38b2"></path><path d="M1271.2 0L1239.6 0L1287.2 73.3Z" fill="#3b38b2" stroke="#3b38b2"></path><path d="M1226 0L1239.6 0L954.2 -24.3Z" fill="#361677" stroke="#361677"></path><path d="M142.6 114.7L188.2 200L262.4 164.3Z" fill="#3a3ebc" stroke="#3a3ebc"></path><path d="M262.4 164.3L188.2 200L312.8 200Z" fill="#3c2d9e" stroke="#3c2d9e"></path><path d="M312.8 200L188.2 200L692 207.3Z" fill="#3c32a8" stroke="#3c32a8"></path><path d="M271.4 0L193.8 0L246.8 48.7Z" fill="#3a218a" stroke="#3a218a"></path><path d="M246.8 48.7L142.6 114.7L262.4 164.3Z" fill="#381c81" stroke="#381c81"></path><path d="M429 -31.3L193.8 0L271.4 0Z" fill="#3844c6" stroke="#3844c6"></path><path d="M1287.2 73.3L1226 0L1177.6 78.7Z" fill="#3b38b2" stroke="#3b38b2"></path><path d="M1239.6 0L1271.2 0L954.2 -24.3Z" fill="#3a3ebc" stroke="#3a3ebc"></path><path d="M429 -31.3L176.2 0L193.8 0Z" fill="#3b38b2" stroke="#3b38b2"></path><path d="M193.8 0L176.2 0L246.8 48.7Z" fill="#3a218a" stroke="#3a218a"></path><path d="M1210.6 200L1287.2 73.3L1177.6 78.7Z" fill="#3b2794" stroke="#3b2794"></path><path d="M176.2 0L142.6 114.7L246.8 48.7Z" fill="#3c2d9e" stroke="#3c2d9e"></path><path d="M429 -31.3L138.2 0.7L176.2 0Z" fill="#3a3ebc" stroke="#3a3ebc"></path><path d="M176.2 0L138.2 0.7L142.6 114.7Z" fill="#3a3ebc" stroke="#3a3ebc"></path><path d="M1331.8 200.3L1330.2 200L1380.4 230.3Z" fill="#310a65" stroke="#310a65"></path><path d="M1210.6 200L1340.2 141.7L1287.2 73.3Z" fill="#3c2d9e" stroke="#3c2d9e"></path><path d="M1287.2 73.3L1350.4 82.7L1271.2 0Z" fill="#310a65" stroke="#310a65"></path><path d="M1380.4 230.3L1330.2 200L1210.6 200Z" fill="#3c2d9e" stroke="#3c2d9e"></path><path d="M1330.2 200L1340.2 141.7L1210.6 200Z" fill="#3844c6" stroke="#3844c6"></path><path d="M1331.8 200.3L1333.8 200L1330.2 200Z" fill="#361677" stroke="#361677"></path><path d="M1333.8 200L1340.2 141.7L1330.2 200Z" fill="#3b2794" stroke="#3b2794"></path><path d="M1383.8 109.7L1350.4 82.7L1340.2 141.7Z" fill="#381c81" stroke="#381c81"></path><path d="M1340.2 141.7L1350.4 82.7L1287.2 73.3Z" fill="#34106e" stroke="#34106e"></path><path d="M142.6 114.7L87.6 200L188.2 200Z" fill="#361677" stroke="#361677"></path><path d="M188.2 200L87.6 200L692 207.3Z" fill="#3a3ebc" stroke="#3a3ebc"></path><path d="M73.6 139.3L87.6 200L142.6 114.7Z" fill="#3b38b2" stroke="#3b38b2"></path><path d="M52.2 37.3L73.6 139.3L142.6 114.7Z" fill="#3b38b2" stroke="#3b38b2"></path><path d="M1380.4 230.3L1383.8 109.7L1340.2 141.7Z" fill="#381c81" stroke="#381c81"></path><path d="M1350.4 82.7L1413.8 0L1271.2 0Z" fill="#34106e" stroke="#34106e"></path><path d="M1331.8 200.3L1380.4 230.3L1333.8 200Z" fill="#3c32a8" stroke="#3c32a8"></path><path d="M1333.8 200L1380.4 230.3L1340.2 141.7Z" fill="#3b38b2" stroke="#3b38b2"></path><path d="M692 207.3L1380.4 230.3L901.8 200Z" fill="#3844c6" stroke="#3844c6"></path><path d="M0 200L1380.4 230.3L692 207.3Z" fill="#3844c6" stroke="#3844c6"></path><path d="M138.2 0.7L52.2 37.3L142.6 114.7Z" fill="#3a218a" stroke="#3a218a"></path><path d="M429 -31.3L54.6 0L138.2 0.7Z" fill="#34106e" stroke="#34106e"></path><path d="M138.2 0.7L54.6 0L52.2 37.3Z" fill="#310a65" stroke="#310a65"></path><path d="M1447.4 0L1413.8 0L1383.8 109.7Z" fill="#3c32a8" stroke="#3c32a8"></path><path d="M1383.8 109.7L1413.8 0L1350.4 82.7Z" fill="#3b38b2" stroke="#3b38b2"></path><path d="M1271.2 0L1413.8 0L954.2 -24.3Z" fill="#3a218a" stroke="#3a218a"></path><path d="M73.6 139.3L0 178.3L87.6 200Z" fill="#361677" stroke="#361677"></path><path d="M0 89.7L0 178.3L73.6 139.3Z" fill="#3c32a8" stroke="#3c32a8"></path><path d="M0 89.7L73.6 139.3L52.2 37.3Z" fill="#361677" stroke="#361677"></path><path d="M0 0L0 89.7L52.2 37.3Z" fill="#3c32a8" stroke="#3c32a8"></path><path d="M0 178.3L0 200L87.6 200Z" fill="#310a65" stroke="#310a65"></path><path d="M87.6 200L0 200L692 207.3Z" fill="#381c81" stroke="#381c81"></path><path d="M1512 74.7L1447.4 0L1383.8 109.7Z" fill="#3b38b2" stroke="#3b38b2"></path><path d="M1413.8 0L1447.4 0L954.2 -24.3Z" fill="#3c2d9e" stroke="#3c2d9e"></path><path d="M429 -31.3L0 0L54.6 0Z" fill="#361677" stroke="#361677"></path><path d="M54.6 0L0 0L52.2 37.3Z" fill="#3b2794" stroke="#3b2794"></path><path d="M1380.4 230.3L1497.4 200L1383.8 109.7Z" fill="#3a218a" stroke="#3a218a"></path><path d="M1380.4 230.3L1512 200L1497.4 200Z" fill="#3c2d9e" stroke="#3c2d9e"></path><path d="M1497.4 200L1512 74.7L1383.8 109.7Z" fill="#310a65" stroke="#310a65"></path><path d="M1512 200L1512 74.7L1497.4 200Z" fill="#310a65" stroke="#310a65"></path><path d="M1512 74.7L1512 62.3L1447.4 0Z" fill="#34106e" stroke="#34106e"></path><path d="M1512 62.3L1512 0L1447.4 0Z" fill="#3a3ebc" stroke="#3a3ebc"></path><path d="M1447.4 0L1512 0L954.2 -24.3Z" fill="#381c81" stroke="#381c81"></path></g></svg>